<svg width="16" height="18" viewBox="0 0 16 18" fill="none" xmlns="http://www.w3.org/2000/svg">
<path fill-rule="evenodd" clip-rule="evenodd" d="M4.44323 0.790344H11.3575C13.906 0.790344 15.325 2.24165 15.325 4.72844V13.1509C15.325 15.6785 13.906 17.0972 11.3575 17.0972H4.44323C1.93523 17.0972 0.474976 15.6785 0.474976 13.1509V4.72844C0.474976 2.24165 1.93523 0.790344 4.44323 0.790344ZM4.66609 4.58984V4.58169H7.13202C7.48759 4.58169 7.77634 4.86705 7.77634 5.21684C7.77634 5.5764 7.48759 5.86177 7.13202 5.86177H4.66609C4.31052 5.86177 4.02259 5.5764 4.02259 5.22581C4.02259 4.87521 4.31052 4.58984 4.66609 4.58984ZM4.66609 9.54711H11.1341C11.4888 9.54711 11.7776 9.26174 11.7776 8.91114C11.7776 8.56055 11.4888 8.27436 11.1341 8.27436H4.66609C4.31052 8.27436 4.02259 8.56055 4.02259 8.91114C4.02259 9.26174 4.31052 9.54711 4.66609 9.54711ZM4.666 13.2732H11.134C11.4632 13.2406 11.7115 12.9626 11.7115 12.6373C11.7115 12.303 11.4632 12.0257 11.134 11.9931H4.666C4.4185 11.9687 4.17925 12.0828 4.04725 12.2948C3.91525 12.4986 3.91525 12.7677 4.04725 12.9797C4.17925 13.1835 4.4185 13.3058 4.666 13.2732Z" fill="#E64E4D"/>
</svg>
