<svg width="20" height="21" viewBox="0 0 20 21" fill="none" xmlns="http://www.w3.org/2000/svg">
<path fill-rule="evenodd" clip-rule="evenodd" d="M11.6501 9.65937H13.9336C14.2798 9.65937 14.5518 9.37647 14.5518 9.03532C14.5518 8.68586 14.2798 8.41127 13.9336 8.41127H11.6501C11.3039 8.41127 11.0318 8.68586 11.0318 9.03532C11.0318 9.37647 11.3039 9.65937 11.6501 9.65937ZM16.6457 5.33347C17.1486 5.33347 17.4783 5.50821 17.808 5.89096C18.1378 6.2737 18.1955 6.82287 18.1213 7.32127L17.3382 12.7796C17.1898 13.8288 16.2995 14.6018 15.2525 14.6018H6.25879C5.1624 14.6018 4.25561 13.754 4.16493 12.6556L3.40652 3.58531L2.16174 3.36897C1.83199 3.31073 1.60117 2.98622 1.65888 2.6534C1.71658 2.31308 2.03808 2.08759 2.37607 2.13835L4.34216 2.43706C4.62244 2.48782 4.82853 2.71996 4.85327 3.00286L5.00989 4.86669C5.03462 5.13378 5.24896 5.33347 5.51275 5.33347H16.6457ZM6.12673 15.9169C5.43427 15.9169 4.87371 16.4827 4.87371 17.1816C4.87371 17.8723 5.43427 18.4381 6.12673 18.4381C6.81095 18.4381 7.37151 17.8723 7.37151 17.1816C7.37151 16.4827 6.81095 15.9169 6.12673 15.9169ZM15.4008 15.9169C14.7083 15.9169 14.1477 16.4827 14.1477 17.1816C14.1477 17.8723 14.7083 18.4381 15.4008 18.4381C16.085 18.4381 16.6455 17.8723 16.6455 17.1816C16.6455 16.4827 16.085 15.9169 15.4008 15.9169Z" fill="#E64E4D"/>
</svg>
