<svg width="20" height="21" viewBox="0 0 20 21" fill="none" xmlns="http://www.w3.org/2000/svg">
<path fill-rule="evenodd" clip-rule="evenodd" d="M1.75 10.6151C1.75 6.31999 5.22325 2.44946 10.0165 2.44946C14.7025 2.44946 18.25 6.2465 18.25 10.5906C18.25 15.6288 14.092 18.7563 10 18.7563C8.647 18.7563 7.1455 18.397 5.941 17.6948C5.52025 17.4416 5.1655 17.2538 4.71175 17.4008L3.04525 17.8907C2.6245 18.0214 2.245 17.6948 2.36875 17.2538L2.9215 15.4247C3.01225 15.1716 2.99575 14.9021 2.86375 14.6898C2.15425 13.3996 1.75 11.987 1.75 10.6151ZM8.9274 10.6151C8.9274 11.1949 9.39765 11.6603 9.9834 11.6685C10.5692 11.6685 11.0394 11.1949 11.0394 10.6233C11.0394 10.0435 10.5692 9.57809 9.9834 9.57809C9.4059 9.56992 8.9274 10.0435 8.9274 10.6151ZM12.7307 10.6233C12.7307 11.1949 13.201 11.6685 13.7867 11.6685C14.3725 11.6685 14.8427 11.1949 14.8427 10.6233C14.8427 10.0435 14.3725 9.57809 13.7867 9.57809C13.201 9.57809 12.7307 10.0435 12.7307 10.6233ZM6.18034 11.6685C5.60284 11.6685 5.12434 11.1949 5.12434 10.6233C5.12434 10.0435 5.59459 9.57809 6.18034 9.57809C6.76609 9.57809 7.23634 10.0435 7.23634 10.6233C7.23634 11.1949 6.76609 11.6603 6.18034 11.6685Z" fill="#E64E4D"/>
</svg>
