<svg width="20" height="21" viewBox="0 0 20 21" fill="none" xmlns="http://www.w3.org/2000/svg">
<g opacity="0.6">
<path fill-rule="evenodd" clip-rule="evenodd" d="M6.32765 2.52844H13.4804C16.2772 2.52844 18.1499 4.46896 18.1499 7.35526V14.0174C18.1499 16.8956 16.2772 18.8353 13.4804 18.8353H6.32765C3.5309 18.8353 1.6499 16.8956 1.6499 14.0174V7.35526C1.6499 4.46896 3.5309 2.52844 6.32765 2.52844ZM9.89172 8.28558C9.50397 8.28558 9.18222 7.96678 9.18222 7.57624C9.18222 7.17672 9.50397 6.85874 9.90822 6.85874C10.3042 6.85874 10.626 7.17672 10.626 7.57624C10.626 7.96678 10.3042 8.28558 9.89172 8.28558ZM10.6176 13.7647C10.6176 14.156 10.2958 14.474 9.89158 14.474C9.49558 14.474 9.17383 14.156 9.17383 13.7647V10.1608C9.17383 9.76866 9.49558 9.44334 9.89158 9.44334C10.2958 9.44334 10.6176 9.76866 10.6176 10.1608V13.7647Z" fill="#E64E4D"/>
</g>
</svg>
