<svg width="20" height="21" viewBox="0 0 20 21" fill="none" xmlns="http://www.w3.org/2000/svg">
<path fill-rule="evenodd" clip-rule="evenodd" d="M16.8318 11.9936C17.1269 12.1485 17.3545 12.3931 17.5147 12.6377C17.8267 13.1432 17.8014 13.7629 17.4979 14.3092L16.9077 15.2876C16.5957 15.8094 16.014 16.1355 15.4154 16.1355C15.1203 16.1355 14.7915 16.054 14.5217 15.8909C14.3025 15.7523 14.0495 15.7034 13.7797 15.7034C12.9451 15.7034 12.2453 16.3801 12.22 17.1873C12.22 18.125 11.4443 18.8588 10.4747 18.8588H9.32809C8.35008 18.8588 7.57441 18.125 7.57441 17.1873C7.55755 16.3801 6.85776 15.7034 6.02308 15.7034C5.74485 15.7034 5.49192 15.7523 5.28114 15.8909C5.01134 16.054 4.6741 16.1355 4.38744 16.1355C3.7804 16.1355 3.19865 15.8094 2.88669 15.2876L2.30494 14.3092C1.99299 13.7792 1.97613 13.1432 2.28808 12.6377C2.42298 12.3931 2.67591 12.1485 2.96257 11.9936C3.19865 11.8794 3.35041 11.6919 3.49374 11.4718C3.91529 10.7706 3.66236 9.84925 2.94571 9.43342C2.11103 8.96868 1.84123 7.93319 2.32181 7.12601L2.88669 6.1639C3.3757 5.35672 4.42116 5.07135 5.26428 5.54424C5.99779 5.93561 6.95051 5.6747 7.3805 4.98166C7.51539 4.75336 7.59127 4.50876 7.57441 4.26416C7.55755 3.94617 7.65029 3.6445 7.81048 3.3999C8.12244 2.89438 8.68732 2.56825 9.3028 2.55194H10.4916C11.1155 2.55194 11.6804 2.89438 11.9923 3.3999C12.1441 3.6445 12.2453 3.94617 12.22 4.26416C12.2031 4.50876 12.279 4.75336 12.4139 4.98166C12.8439 5.6747 13.7966 5.93561 14.5385 5.54424C15.3732 5.07135 16.4271 5.35672 16.9077 6.1639L17.4726 7.12601C17.9616 7.93319 17.6918 8.96868 16.8487 9.43342C16.132 9.84925 15.8791 10.7706 16.3091 11.4718C16.444 11.6919 16.5957 11.8794 16.8318 11.9936ZM7.51531 10.7135C7.51531 11.9936 8.58606 13.0128 9.90975 13.0128C11.2334 13.0128 12.2789 11.9936 12.2789 10.7135C12.2789 9.43343 11.2334 8.4061 9.90975 8.4061C8.58606 8.4061 7.51531 9.43343 7.51531 10.7135Z" fill="#E64E4D"/>
</svg>
