<svg width="26" height="27" viewBox="0 0 26 27" fill="none" xmlns="http://www.w3.org/2000/svg">
<g filter="url(#filter0_d_226_615)">
<path fill-rule="evenodd" clip-rule="evenodd" d="M9.04752 2.47247H16.7522C19.558 2.47247 21.142 4.04527 21.1503 6.81824V14.4335C21.1503 17.2057 19.558 18.7793 16.7522 18.7793H9.04752C6.24169 18.7793 4.65027 17.2057 4.65027 14.4335V6.81824C4.65027 4.04527 6.24169 2.47247 9.04752 2.47247ZM12.9407 15.4038C13.2963 15.4038 13.5925 15.1429 13.6255 14.7923V6.48395C13.6585 6.2312 13.5356 5.97762 13.3128 5.83983C13.081 5.70122 12.8005 5.70122 12.5786 5.83983C12.355 5.97762 12.2321 6.2312 12.256 6.48395V14.7923C12.2981 15.1429 12.5942 15.4038 12.9407 15.4038ZM16.7366 15.4038C17.0831 15.4038 17.3792 15.1429 17.4213 14.7923V12.118C17.4452 11.8562 17.3223 11.6125 17.0987 11.4738C16.8768 11.3352 16.5963 11.3352 16.3653 11.4738C16.1417 11.6125 16.0188 11.8562 16.0518 12.118V14.7923C16.0848 15.1429 16.381 15.4038 16.7366 15.4038ZM9.78097 14.7923C9.74797 15.1429 9.45179 15.4038 9.09622 15.4038C8.74147 15.4038 8.44447 15.1429 8.41229 14.7923V9.15827C8.38754 8.9047 8.51047 8.65276 8.73404 8.51415C8.95597 8.37554 9.23729 8.37554 9.46004 8.51415C9.68197 8.65276 9.80654 8.9047 9.78097 9.15827V14.7923Z" fill="#E64E4D"/>
</g>
<defs>
<filter id="filter0_d_226_615" x="-1" y="0.841461" width="27.8" height="27.5682" filterUnits="userSpaceOnUse" color-interpolation-filters="sRGB">
<feFlood flood-opacity="0" result="BackgroundImageFix"/>
<feColorMatrix in="SourceAlpha" type="matrix" values="0 0 0 0 0 0 0 0 0 0 0 0 0 0 0 0 0 0 127 0" result="hardAlpha"/>
<feOffset dy="4"/>
<feGaussianBlur stdDeviation="2"/>
<feComposite in2="hardAlpha" operator="out"/>
<feColorMatrix type="matrix" values="0 0 0 0 0 0 0 0 0 0 0 0 0 0 0 0 0 0 0.25 0"/>
<feBlend mode="normal" in2="BackgroundImageFix" result="effect1_dropShadow_226_615"/>
<feBlend mode="normal" in="SourceGraphic" in2="effect1_dropShadow_226_615" result="shape"/>
</filter>
</defs>
</svg>
