<svg width="20" height="21" viewBox="0 0 20 21" fill="none" xmlns="http://www.w3.org/2000/svg">
<path fill-rule="evenodd" clip-rule="evenodd" d="M14.6594 7.41425H18.15C18.15 4.64437 16.4707 3.02625 13.6254 3.02625H6.17469C3.32936 3.02625 1.65002 4.64437 1.65002 7.37892V13.3497C1.65002 16.0843 3.32936 17.7024 6.17469 17.7024H13.6254C16.4707 17.7024 18.15 16.0843 18.15 13.3497V13.0953H14.6594C13.0393 13.0953 11.726 11.8299 11.726 10.2689C11.726 8.70794 13.0393 7.44251 14.6594 7.44251V7.41425ZM14.6592 8.62961H17.5339C17.8741 8.62961 18.1499 8.89535 18.1499 9.22316V11.2864C18.1459 11.6127 17.8724 11.8762 17.5339 11.88H14.7252C13.9051 11.8906 13.1879 11.3496 13.0019 10.5798C12.9087 10.102 13.0395 9.60896 13.3592 9.2328C13.6788 8.85665 14.1547 8.63586 14.6592 8.62961ZM14.7839 10.7989H15.0552C15.4035 10.7989 15.6859 10.5268 15.6859 10.1912C15.6859 9.8556 15.4035 9.58353 15.0552 9.58353H14.7839C14.6173 9.58165 14.4569 9.64409 14.3384 9.75693C14.2199 9.86977 14.1532 10.0236 14.1532 10.1841C14.1532 10.5209 14.4344 10.795 14.7839 10.7989ZM5.5588 7.41426H10.2155C10.5638 7.41426 10.8461 7.14219 10.8461 6.80658C10.8461 6.47097 10.5638 6.1989 10.2155 6.1989H5.5588C5.21334 6.19888 4.93215 6.46667 4.92814 6.79951C4.92811 7.13629 5.20931 7.41039 5.5588 7.41426Z" fill="#E64E4D"/>
</svg>
